# xmcd
#
# Track frame offsets:
#	150
#	16780
#	43888
#	65607
#	89936
#	107048
#	133593
#	150703
#	182515
#	202954
#
# Disc length: 2956 seconds
# Revision: 0
# Processed by: cddbd v1.5.2PL0 Copyright (c) Steve Scherf et al.
# Submitted via: dBpowerAMP V12.0
#
DISCID=870b8a0a
DTITLE=Vincent Hayes - The Grind
DYEAR=2013
DGENRE=Blues
TTITLE0=All You've Got
TTITLE1=Common Vision
TTITLE2=Cold Feet
TTITLE3=Things That Get Me By
TTITLE4=The Grind
TTITLE5=My Guitar And My Baby
TTITLE6=The Gun
TTITLE7=The Other Side of Town
TTITLE8=Inner City Blues (Makes Me Wanna Holler)
TTITLE9=Not Tonight
EXTD=
EXTT0=
EXTT1=
EXTT2=
EXTT3=
EXTT4=
EXTT5=
EXTT6=
EXTT7=
EXTT8=
EXTT9=
PLAYORDER=
